<svg width="129" height="32" viewBox="0 0 129 32" fill="none" xmlns="http://www.w3.org/2000/svg">
<g clip-path="url(#clip0_2_1155)">
<g clip-path="url(#clip1_2_1155)">
<g clip-path="url(#clip2_2_1155)">
<path fill-rule="evenodd" clip-rule="evenodd" d="M5.80343 0.000443313C3.84288 0.141627 2.08056 1.17703 0.998462 2.82343C0.460287 3.64226 0.128578 4.5669 0.0118446 5.57366C-0.00436181 5.71343 -0.0078125 26.2999 -0.0078125 26.2999L0.0249691 26.5374C0.279332 28.3797 1.25215 29.946 2.77448 30.9643C3.60618 31.5206 4.50456 31.8451 5.5885 31.9805C5.77311 32.0036 26.1113 32.0151 26.5278 31.962C28.7301 31.6812 30.6255 30.2497 31.499 28.2076C31.7711 27.5716 31.9307 26.9132 31.9848 26.2041C31.9966 26.0498 31.989 5.71526 31.9657 5.5368C31.8685 4.79319 31.6828 4.15536 31.3816 3.53047C30.6219 1.95445 29.2201 0.755732 27.5469 0.251444C27.2019 0.147437 26.8276 0.0707106 26.4106 0.0184931C26.2256 -0.00467374 5.89204 -0.00594194 5.80343 0.000443313ZM13.3747 5.31679C13.1842 5.38004 13.065 5.39671 12.8019 5.39679C12.6506 5.39685 12.4996 5.40582 12.4088 5.42017C12.3277 5.43297 12.1916 5.44327 12.1065 5.44307C11.9504 5.44268 11.6717 5.47805 11.4137 5.53096C11.1871 5.57745 10.7925 5.71631 10.5879 5.82163C10.4863 5.87387 10.3634 5.9372 10.3148 5.96234C10.2364 6.00282 10.212 6.00807 10.1009 6.00827C10.032 6.00841 9.86473 5.99749 9.72924 5.98405C9.50983 5.96225 9.47758 5.95553 9.43431 5.92261C9.35596 5.86302 9.23783 5.80961 9.18452 5.80967C9.08769 5.80977 9.04785 5.85161 8.94986 6.05608C8.82547 6.31565 8.75696 6.3978 8.51569 6.57672C8.128 6.86425 7.95883 7.17347 7.93901 7.63081C7.92938 7.85329 7.92683 7.86495 7.87772 7.91168C7.81428 7.9721 7.20724 8.42622 7.13771 8.4653C7.10023 8.48636 7.04713 8.53885 7.00499 8.59648C6.96637 8.64932 6.87337 8.76555 6.79832 8.85477C6.57827 9.11637 6.53371 9.18897 6.42992 9.45504C6.39605 9.54189 6.30551 9.73433 6.22872 9.88269C5.96011 10.4018 5.95506 10.4132 5.95506 10.503C5.95506 10.5601 5.96893 10.6193 6.00118 10.6999C6.1134 10.9801 6.14129 11.2091 6.09851 11.4989C6.05405 11.7999 6.01299 11.9273 5.86112 12.2353C5.78417 12.3914 5.72126 12.5241 5.72132 12.5302C5.72138 12.5364 5.74431 12.557 5.7723 12.5761C5.88275 12.6513 5.94242 12.7673 5.94242 12.9069C5.94242 13.0162 5.97356 13.1336 6.02734 13.2271C6.04833 13.2636 6.23854 13.4696 6.45004 13.6848C6.75792 13.998 6.8446 14.0951 6.88484 14.1714C6.98007 14.3521 7.07703 14.5043 7.13269 14.5604C7.20838 14.6367 7.54843 14.8918 7.75918 15.0303C7.95045 15.1561 8.2556 15.3341 8.45352 15.4355C8.61613 15.5187 8.71217 15.5249 8.86281 15.4619C9.16014 15.3377 9.19571 15.333 9.81339 15.3375C10.3934 15.3417 10.3608 15.3468 10.8232 15.1808C11.1431 15.0659 11.3104 15.0208 11.5306 14.9901C11.9137 14.9367 11.9798 14.9661 12.1576 15.2695C12.2399 15.4098 12.2854 15.461 12.3642 15.5015C12.4178 15.529 12.4364 15.5306 12.5781 15.5191C12.6634 15.5122 12.8195 15.5063 12.9249 15.506C13.0945 15.5055 13.1251 15.5094 13.1903 15.5394C13.2795 15.5805 13.3373 15.6332 13.3795 15.7119C13.443 15.8302 13.4103 16.1153 13.2756 16.6188C13.1916 16.9331 13.2051 17.0959 13.3311 17.2861C13.3555 17.3229 13.4917 17.4782 13.6339 17.6311C13.7761 17.784 13.9252 17.9523 13.9652 18.005C14.1129 18.1995 14.319 18.7658 14.3837 19.1552C14.4046 19.2809 14.4217 19.3986 14.4217 19.4168C14.4217 19.4349 14.4449 19.5191 14.4733 19.604C14.553 19.8421 14.5393 19.9664 14.4138 20.1434C14.1367 20.5341 14.0071 20.9675 13.9838 21.581C13.9711 21.9142 13.9893 21.9699 14.2561 22.4166C14.5169 22.8532 14.6422 23.1234 14.7015 23.3768C14.7171 23.4435 14.7537 23.664 14.7829 23.8668C14.8438 24.2893 14.9199 24.6511 14.9716 24.763C14.9911 24.8054 15.0514 24.8946 15.1056 24.9614C15.2562 25.1472 15.3992 25.3764 15.5266 25.6363C15.742 26.0759 15.7903 26.2375 15.7732 26.4612C15.7499 26.7637 15.8655 26.9925 16.0954 27.0989C16.2347 27.1633 16.3724 27.1574 16.7522 27.0707C17.1118 26.9887 17.3425 26.9562 17.5671 26.956C17.7455 26.9558 18.0506 26.9146 18.2232 26.8674C18.395 26.8204 18.5151 26.7509 18.6765 26.6052C18.987 26.3249 19.308 25.9402 19.6938 25.3856C20.0046 24.939 20.0536 24.8179 20.0678 24.4614C20.0757 24.2617 20.0811 24.2245 20.1069 24.1886C20.1443 24.1364 20.3905 24.0113 20.4819 23.998C20.5841 23.9831 20.6534 23.9413 20.6957 23.8692C20.7827 23.7206 20.828 23.3759 20.7939 23.1207C20.7846 23.051 20.7572 22.9129 20.733 22.8138C20.6425 22.4435 20.6881 22.3132 20.9648 22.1511C21.0461 22.1035 21.0771 22.074 21.1289 21.9948C21.2247 21.8483 21.3605 21.7556 21.5865 21.6823C21.8941 21.5825 22.1476 21.334 22.2539 21.028C22.2915 20.9199 22.2965 20.7526 22.2746 20.3373C22.2649 20.1527 22.2675 20.0768 22.2888 19.9244C22.3214 19.6912 22.3129 19.6531 22.1946 19.5057C22.0398 19.313 21.9849 19.1687 21.9594 18.8878C21.9478 18.7603 21.9346 18.7053 21.8885 18.5929C21.8426 18.481 21.8318 18.4365 21.832 18.3589C21.8322 18.2647 21.8349 18.2582 21.9918 17.9755C22.1959 17.6077 22.2725 17.4934 22.4661 17.2673C22.903 16.7572 23.2817 16.3996 23.7857 16.0217C24.0979 15.7876 24.3012 15.5751 24.4584 15.3188C24.9369 14.538 25.235 13.9444 25.2755 13.6916C25.3024 13.5234 25.2707 13.3374 25.2064 13.2869C25.1492 13.2419 25.0877 13.2494 24.9069 13.3234C24.7777 13.3764 24.6754 13.4038 24.4159 13.4553C23.7376 13.5897 23.4133 13.6435 23.3308 13.6351C23.1816 13.62 23.1029 13.5324 23.0599 13.3338C23.0447 13.2638 23.0219 13.1848 23.0093 13.1582C22.9812 13.099 22.5923 12.7176 22.2718 12.4351C21.9989 12.1946 21.9324 12.1082 21.875 11.9198C21.7993 11.6717 21.7277 11.5489 21.5583 11.3764C21.3995 11.2148 21.3682 11.1436 21.3526 10.9076C21.3296 10.5585 21.2459 10.36 21.0182 10.1144C20.9293 10.0186 20.9084 9.98508 20.8683 9.87421C20.8427 9.80337 20.8217 9.73934 20.8217 9.73194C20.8217 9.68844 20.765 9.56669 20.6942 9.45808C20.5699 9.26727 20.335 8.74908 20.335 8.66542C20.335 8.65373 20.371 8.62977 20.4159 8.61156L20.4967 8.57874L20.5585 8.39233C20.6136 8.22614 20.6203 8.19073 20.6203 8.06583C20.6204 7.91704 20.6178 7.90393 20.5249 7.5928L20.4651 7.39259L20.212 7.37519C20.0366 7.36313 19.9138 7.34621 19.8115 7.31999C19.7 7.2914 19.6263 7.28209 19.5092 7.28181C19.3444 7.28142 19.2553 7.30132 19.0674 7.38053C18.9124 7.44586 18.8365 7.435 18.0437 7.23424L17.3672 7.06289L17.2742 6.97593C17.1455 6.85548 17.0529 6.82127 16.8844 6.83175C16.7198 6.84198 16.4911 6.91401 16.4172 6.97888C16.344 7.04311 16.3243 7.09921 16.3091 7.28574C16.2951 7.45833 16.2601 7.56501 16.2084 7.59267C16.1919 7.60149 16.1546 7.60869 16.1254 7.60869C16.0364 7.60869 15.2966 7.31909 15.2108 7.25063C15.1796 7.22567 15.153 7.18525 15.1378 7.13961C15.0869 6.98638 14.9361 6.91433 14.5414 6.85481C14.215 6.80558 13.9826 6.72668 13.7594 6.58933L13.6376 6.51436L13.6727 6.47534C13.6921 6.45388 13.7498 6.39045 13.8011 6.33436C13.9571 6.16381 13.9738 6.07456 13.8827 5.90057C13.8127 5.76702 13.8159 5.69647 13.8964 5.59311C13.9877 5.47588 13.963 5.42994 13.8007 5.41523C13.7308 5.40889 13.7102 5.40073 13.6913 5.37187C13.659 5.32253 13.5823 5.27873 13.5295 5.27944C13.5052 5.27978 13.4355 5.29658 13.3747 5.31679ZM24.5894 20.1703C24.52 20.2126 24.4614 20.2881 24.3623 20.4629C24.3118 20.5518 24.241 20.6563 24.2051 20.6949C24.1691 20.7335 24.1395 20.7761 24.1393 20.7896C24.1383 20.8711 24.0107 21.044 23.9111 21.0991C23.8867 21.1126 23.7408 21.1767 23.5867 21.2417L23.3065 21.3598L23.2373 21.4975C23.1993 21.5731 23.1578 21.6806 23.1452 21.7363C23.1154 21.8673 23.1158 22.0655 23.1463 22.2189C23.1766 22.3715 23.1633 22.4489 23.0726 22.6483C22.9542 22.9088 22.9219 23.0632 22.946 23.2539C22.9651 23.4057 22.992 23.4937 23.0901 23.7257C23.1539 23.8769 23.1895 23.9407 23.2401 23.9947C23.3157 24.0754 23.4645 24.1691 23.517 24.1691C23.5365 24.1691 23.6043 24.1462 23.6678 24.1183C23.7312 24.0904 23.8249 24.06 23.876 24.0508C23.9883 24.0304 24.0346 24.0077 24.1026 23.9397C24.1996 23.8427 24.2582 23.6877 24.3673 23.24C24.4038 23.09 24.4841 22.8046 24.5457 22.6059C24.6814 22.1681 24.7476 21.9142 24.7822 21.699C24.8037 21.5654 24.8211 21.5108 24.8805 21.3893L24.9528 21.2419L24.9469 20.9027C24.9418 20.6036 24.9373 20.5519 24.9089 20.4655C24.8546 20.3001 24.7302 20.1431 24.6535 20.1433C24.6426 20.1433 24.6138 20.1555 24.5894 20.1703Z" fill="url(#paint0_linear_2_1155)"/>
<path fill-rule="evenodd" clip-rule="evenodd" d="M48.4994 2.62117C48.1097 2.70777 47.7571 2.93767 47.5091 3.2669C47.3677 3.45443 47.3188 3.54632 47.04 4.14774C46.5967 5.10399 39.8609 19.6683 39.809 19.9654C39.7128 20.5173 39.8859 21.0152 40.3195 21.434C40.8803 21.9756 41.7322 22.1236 42.3949 21.7945C42.7759 21.6053 43.0549 21.2952 43.2649 20.8274C43.56 20.1699 48.877 8.64416 48.877 8.64416L48.9145 8.71836C48.9763 8.84034 57.3365 26.8957 57.3964 27.019C57.7703 27.7893 58.3671 28.2001 59.1125 28.2001C59.9191 28.2001 60.6142 27.6737 60.8138 26.9116C60.8974 26.5927 60.8888 26.1759 60.7917 25.8409C60.7402 25.6631 50.6049 3.8178 50.5594 3.72296C50.2851 3.15072 49.8728 2.79072 49.3212 2.64196C49.1415 2.59349 48.6768 2.58173 48.4994 2.62117ZM72.7835 2.61053C72.0984 2.64955 71.4188 2.75691 70.7088 2.93828C68.7091 3.44908 67.1264 4.4641 65.9764 5.97324C65.2099 6.97909 64.7541 8.03143 64.5459 9.27537C64.4214 10.0198 64.3858 11.0873 64.474 11.4376C64.6172 12.0068 65.0784 12.4863 65.6588 12.6694C66.3652 12.8922 67.2012 12.6192 67.6407 12.0221C67.8975 11.6734 67.965 11.4209 67.9925 10.7066C68.0106 10.2385 68.0445 9.97315 68.1335 9.603C68.3126 8.85792 68.6262 8.26604 69.1041 7.77063C69.3462 7.5196 69.4931 7.39788 69.7863 7.20515C70.3246 6.85128 70.7805 6.62851 71.3554 6.43838C72.0099 6.22193 72.6252 6.1304 73.2867 6.15109C74.1221 6.17721 74.9379 6.37536 75.798 6.76103C76.9381 7.27221 77.7148 8.08109 78.08 9.13742C78.4201 10.1213 78.4801 11.2303 78.2506 12.2894C78.0889 13.0354 77.878 13.4936 77.4923 13.937C77.205 14.2674 76.709 14.6126 76.0284 14.956C75.2469 15.3503 74.7147 15.5473 73.3298 15.955C70.8159 16.6951 69.4719 17.2559 68.2775 18.063C67.7525 18.4177 67.3694 18.7379 66.9132 19.2033C66.0264 20.1078 64.9655 22.4149 64.9655 22.4149C64.6911 23.23 64.5287 24.1172 64.4591 25.1825C64.3823 26.3576 64.3943 26.684 64.5277 27.0496C64.7383 27.6267 65.2075 28.0274 65.8375 28.1683L66.0186 28.2088H73.6229L73.7632 28.1713C74.1096 28.0788 74.3786 27.9194 74.6246 27.6608C75.064 27.1991 75.2158 26.5689 75.0367 25.9507C74.8642 25.3555 74.3882 24.8962 73.7725 24.7311C73.5736 24.6777 68.0943 24.6652 68.0943 24.6652L68.1058 24.5833C68.246 23.5831 68.6279 22.6801 69.2127 21.9659C69.7047 21.365 70.3777 20.8671 71.2185 20.4817C72.0422 20.1043 72.9501 19.7821 74.4679 19.3284C75.9401 18.8883 76.7856 18.5742 77.6477 18.147C78.1163 17.9147 78.4069 17.7486 78.7788 17.5006C80.38 16.4323 81.3619 14.9501 81.7516 13.0133C82.044 11.56 81.9908 9.75183 81.6168 8.42949C81.0507 6.42788 79.7919 4.90343 77.7802 3.78333C76.6088 3.13104 75.3245 2.73448 74.0424 2.6291C73.7286 2.6033 73.0786 2.59372 72.7835 2.61053ZM94.4186 2.60377C92.2113 2.71442 90.3484 3.31444 88.9438 4.36716C88.3562 4.80756 87.8114 5.3598 87.4071 5.9248C86.7702 6.81491 86.397 7.80264 86.2618 8.95637C86.2232 9.28639 86.2099 9.98589 86.2352 10.3622C86.2881 11.1503 86.4049 11.7469 86.6176 12.3149C87.2333 13.9595 88.5957 15.2399 90.6657 16.1192C91.5888 16.5113 92.4107 16.7704 94.4186 17.3022C96.8476 17.9456 97.8871 18.3005 98.7209 18.7714C99.0345 18.9485 99.2286 19.0887 99.4375 19.2893C99.7748 19.6129 99.9809 19.9735 100.086 20.4233C100.129 20.6112 100.147 21.099 100.12 21.3528C100.009 22.3621 99.542 23.1155 98.6695 23.6907C97.9957 24.1349 97.0315 24.444 95.8916 24.5812C95.6247 24.6133 95.4803 24.6197 94.9877 24.6208C94.6155 24.6216 94.3195 24.6138 94.1772 24.5993C92.6073 24.4393 91.3128 24.0068 90.3068 23.3064C90.0316 23.1148 89.8101 22.9277 89.5042 22.6284C89.1808 22.312 89.0704 22.2265 88.8864 22.1501C88.3923 21.9451 87.6536 22.0419 87.122 22.3814C86.9992 22.4599 86.7994 22.6519 86.7096 22.7778C86.377 23.2438 86.3007 23.9348 86.522 24.4755C86.6318 24.744 86.792 24.9602 87.1099 25.2691C88.0805 26.2126 89.1202 26.8714 90.4362 27.377C91.9673 27.9652 93.4839 28.2249 95.2114 28.1948C96.9364 28.1646 98.3124 27.8503 99.7124 27.1667C100.878 26.5973 101.701 25.9445 102.366 25.0618C103.071 24.1257 103.488 23.0879 103.656 21.8545C103.708 21.4699 103.713 20.5881 103.664 20.1991C103.568 19.4252 103.41 18.8688 103.119 18.2765C102.682 17.3897 102.007 16.6499 101.039 15.9976C100.266 15.4761 99.4522 15.1027 98.1268 14.661C97.4548 14.437 96.915 14.2826 95.8728 14.0165C94.7796 13.7374 94.3719 13.6257 93.7928 13.4465C91.986 12.8876 90.9505 12.3639 90.3963 11.7285C89.8719 11.1273 89.689 10.3893 89.8162 9.38746C89.8834 8.85727 90.0474 8.40499 90.3268 7.97911C90.5027 7.71099 90.8582 7.35912 91.149 7.16532C91.8825 6.67655 93.0217 6.30902 94.1772 6.18844C94.3195 6.17359 94.6648 6.15481 94.9445 6.14671C95.4032 6.13341 95.4693 6.12774 95.617 6.08899C95.8174 6.03644 95.9395 5.98326 96.1036 5.87724C96.4371 5.66175 96.7397 5.2317 96.849 4.81792C96.8892 4.66606 96.9034 4.31821 96.8764 4.15062C96.7981 3.66533 96.4884 3.16751 96.1015 2.90508C95.9073 2.77338 95.696 2.68697 95.4441 2.63629C95.3165 2.61063 94.6828 2.59053 94.4186 2.60377ZM126.129 2.60513C125.725 2.65562 125.381 2.83083 125.093 3.13271C124.883 3.35366 124.793 3.51314 124.593 4.02238C124.12 5.22542 117.421 21.6618 117.421 21.6618C117.421 21.6618 112.805 10.2746 112.762 10.1893C112.467 9.59677 111.976 9.25465 111.352 9.20624C110.784 9.16226 110.137 9.43469 109.793 9.86182C109.518 10.2042 109.398 10.5784 109.417 11.0342C109.435 11.4366 115.763 27.0391 115.831 27.1741C115.935 27.3825 116.045 27.5376 116.197 27.692C116.898 28.4005 118.006 28.3843 118.706 27.6554C118.856 27.4988 119.007 27.2816 119.085 27.1095C119.143 26.9809 128.077 4.89086 128.125 4.71864C128.156 4.60728 128.187 4.54475 128.188 4.30022C128.21 4.30022 128.165 3.99886 128.164 3.99886L128.102 3.8219C128.02 3.58996 127.903 3.39799 127.733 3.21723C127.417 2.88108 127.022 2.67357 126.579 2.61199C126.452 2.59441 126.241 2.59118 126.129 2.60513Z" fill="url(#paint1_linear_2_1155)"/>
<path d="M101.711 8.72185C102.704 8.72185 103.508 7.91728 103.508 6.9248C103.508 5.93231 102.704 5.12775 101.711 5.12775C100.719 5.12775 99.9141 5.93231 99.9141 6.9248C99.9141 7.91728 100.719 8.72185 101.711 8.72185Z" fill="url(#paint2_linear_2_1155)"/>
<path d="M80.2053 28.2237C81.1977 28.2237 82.0023 27.4192 82.0023 26.4267C82.0023 25.4342 81.1977 24.6296 80.2053 24.6296C79.2128 24.6296 78.4082 25.4342 78.4082 26.4267C78.4082 27.4192 79.2128 28.2237 80.2053 28.2237Z" fill="url(#paint3_linear_2_1155)"/>
<path d="M108.535 6.17729C109.528 6.17729 110.332 5.37272 110.332 4.38024C110.332 3.38776 109.528 2.58319 108.535 2.58319C107.543 2.58319 106.738 3.38776 106.738 4.38024C106.738 5.37272 107.543 6.17729 108.535 6.17729Z" fill="url(#paint4_linear_2_1155)"/>
<path d="M38.7228 28.1708C39.7153 28.1708 40.5199 27.3662 40.5199 26.3737C40.5199 25.3812 39.7153 24.5767 38.7228 24.5767C37.7303 24.5767 36.9258 25.3812 36.9258 26.3737C36.9258 27.3662 37.7303 28.1708 38.7228 28.1708Z" fill="url(#paint5_linear_2_1155)"/>
</g>
</g>
</g>
<defs>
<linearGradient id="paint0_linear_2_1155" x1="0.102492" y1="90.8904" x2="112.103" y2="90.8904" gradientUnits="userSpaceOnUse">
<stop stop-color="#2D388A"/>
<stop offset="1" stop-color="#00AEEF"/>
</linearGradient>
<linearGradient id="paint1_linear_2_1155" x1="-6.15956" y1="108.88" x2="124.805" y2="108.88" gradientUnits="userSpaceOnUse">
<stop stop-color="#2D388A"/>
<stop offset="1" stop-color="#00AEEF"/>
</linearGradient>
<linearGradient id="paint2_linear_2_1155" x1="-6.16016" y1="108.88" x2="124.804" y2="108.88" gradientUnits="userSpaceOnUse">
<stop stop-color="#2D388A"/>
<stop offset="1" stop-color="#00AEEF"/>
</linearGradient>
<linearGradient id="paint3_linear_2_1155" x1="-6.15952" y1="108.88" x2="124.805" y2="108.88" gradientUnits="userSpaceOnUse">
<stop stop-color="#2D388A"/>
<stop offset="1" stop-color="#00AEEF"/>
</linearGradient>
<linearGradient id="paint4_linear_2_1155" x1="-6.15976" y1="108.88" x2="124.805" y2="108.88" gradientUnits="userSpaceOnUse">
<stop stop-color="#2D388A"/>
<stop offset="1" stop-color="#00AEEF"/>
</linearGradient>
<linearGradient id="paint5_linear_2_1155" x1="-6.15994" y1="108.88" x2="124.805" y2="108.88" gradientUnits="userSpaceOnUse">
<stop stop-color="#2D388A"/>
<stop offset="1" stop-color="#00AEEF"/>
</linearGradient>
<clipPath id="clip0_2_1155">
<rect width="128.28" height="32" fill="white"/>
</clipPath>
<clipPath id="clip1_2_1155">
<rect width="128.28" height="32" fill="white"/>
</clipPath>
<clipPath id="clip2_2_1155">
<rect width="128.295" height="32" fill="white" transform="translate(-0.0078125)"/>
</clipPath>
</defs>
</svg>
